<?xml version="1.0" encoding="utf-8"?>
<!-- Generator: Adobe Illustrator 16.0.0, SVG Export Plug-In . SVG Version: 6.00 Build 0)  -->
<!DOCTYPE svg PUBLIC "-//W3C//DTD SVG 1.1//EN" "http://www.w3.org/Graphics/SVG/1.1/DTD/svg11.dtd">
<svg version="1.1" id="Layer_1" xmlns="http://www.w3.org/2000/svg" xmlns:xlink="http://www.w3.org/1999/xlink" x="0px" y="0px"
	 width="70.667px" height="24px" viewBox="17.333 0 70.667 24" enable-background="new 17.333 0 70.667 24" xml:space="preserve">
<g>
	<path fill="#FFFFFF" d="M683.161,2030.11h-7.362v-10.18h7.362v1.97h-4.751v1.757h4.409v1.969h-4.409v2.516h4.751V2030.11z"/>
	<path fill="#FFFFFF" d="M693.251,2030.11h-2.872l-1.64-2.3l-1.686,2.3h-2.813l3.027-3.845l-2.979-3.833h2.871l1.613,2.253
		l1.621-2.253h2.822l-2.986,3.781L693.251,2030.11z"/>
	<path fill="#FFFFFF" d="M702.604,2026.166c0,0.634-0.098,1.21-0.29,1.729c-0.193,0.52-0.447,0.948-0.762,1.285
		c-0.328,0.355-0.698,0.624-1.112,0.808c-0.414,0.183-0.858,0.272-1.331,0.272c-0.438,0-0.809-0.047-1.113-0.141
		c-0.305-0.093-0.617-0.225-0.936-0.393v3.198h-2.469v-10.493h2.469v0.801c0.378-0.302,0.764-0.545,1.156-0.731
		c0.394-0.186,0.849-0.28,1.362-0.28c0.956,0,1.699,0.352,2.229,1.054C702.337,2023.977,702.604,2024.939,702.604,2026.166z
		 M700.066,2026.218c0-0.746-0.127-1.288-0.383-1.625c-0.255-0.337-0.656-0.505-1.208-0.505c-0.231,0-0.471,0.035-0.716,0.105
		c-0.246,0.07-0.479,0.172-0.703,0.304v3.855c0.164,0.064,0.339,0.105,0.525,0.123c0.186,0.02,0.37,0.027,0.552,0.027
		c0.65,0,1.134-0.188,1.453-0.57C699.907,2027.554,700.066,2026.982,700.066,2026.218z"/>
	<path fill="#FFFFFF" d="M712.229,2026.275c0,1.263-0.368,2.257-1.104,2.982c-0.736,0.729-1.771,1.091-3.1,1.091
		c-1.33,0-2.364-0.362-3.101-1.091c-0.735-0.727-1.104-1.721-1.104-2.982c0-1.271,0.37-2.271,1.11-2.994
		c0.741-0.725,1.771-1.087,3.094-1.087c1.34,0,2.375,0.363,3.106,1.094C711.863,2024.018,712.229,2025.013,712.229,2026.275z
		 M709.199,2028.142c0.16-0.195,0.278-0.432,0.358-0.707s0.12-0.657,0.12-1.146c0-0.451-0.041-0.829-0.123-1.135
		c-0.082-0.307-0.195-0.549-0.342-0.731c-0.146-0.187-0.321-0.319-0.525-0.396c-0.205-0.077-0.427-0.116-0.663-0.116
		c-0.237,0-0.448,0.032-0.633,0.096c-0.184,0.064-0.36,0.191-0.529,0.383c-0.15,0.179-0.271,0.423-0.359,0.731
		s-0.133,0.699-0.133,1.169c0,0.419,0.039,0.782,0.116,1.091c0.078,0.307,0.19,0.555,0.342,0.741c0.146,0.178,0.32,0.308,0.522,0.39
		c0.203,0.082,0.435,0.123,0.694,0.123c0.223,0,0.438-0.037,0.639-0.113C708.886,2028.446,709.058,2028.319,709.199,2028.142z"/>
	<path fill="#FFFFFF" d="M719.556,2024.778h-0.218c-0.104-0.036-0.272-0.063-0.505-0.082c-0.232-0.02-0.425-0.027-0.58-0.027
		c-0.35,0-0.659,0.022-0.928,0.068s-0.558,0.123-0.866,0.231v5.142h-2.468v-7.678h2.468v1.128c0.541-0.465,1.012-0.772,1.412-0.926
		c0.4-0.152,0.769-0.229,1.104-0.229c0.086,0,0.185,0.002,0.293,0.007c0.109,0.005,0.205,0.012,0.287,0.021V2024.778
		L719.556,2024.778z"/>
	<path fill="#FFFFFF" d="M725.858,2030.043c-0.265,0.068-0.544,0.121-0.842,0.16c-0.296,0.038-0.658,0.058-1.087,0.058
		c-0.957,0-1.669-0.192-2.136-0.581c-0.467-0.388-0.701-1.051-0.701-1.988v-3.59h-1.012v-1.668h1.012v-2.193h2.468v2.193h2.298
		v1.668h-2.298v2.726c0,0.27,0.003,0.505,0.008,0.705c0.004,0.2,0.041,0.382,0.108,0.541c0.064,0.159,0.177,0.286,0.337,0.38
		c0.161,0.094,0.396,0.141,0.706,0.141c0.127,0,0.294-0.027,0.501-0.082s0.352-0.104,0.434-0.15h0.205L725.858,2030.043
		L725.858,2030.043z"/>
</g>
<g>
	<polyline fill="#EA4C3A" points="749.183,2034.25 730.335,2034.25 730.335,2016.25 749.183,2016.25 749.183,2034.25 	"/>
	<path fill="none" stroke="#FFFFFF" stroke-width="0.8" stroke-linejoin="round" stroke-miterlimit="10" d="M739.987,2018.998
		c0.284,0.134,0.225,0.307,0.137,1.126c-0.089,0.845-0.388,2.388-0.963,3.904c-0.576,1.516-1.433,3.004-2.177,4.104
		c-0.745,1.104-1.383,1.819-1.868,2.233c-0.488,0.413-0.825,0.522-1.045,0.561c-0.22,0.037-0.318,0-0.377-0.109
		c-0.06-0.111-0.08-0.293-0.029-0.517c0.049-0.22,0.168-0.477,0.505-0.807c0.339-0.331,0.896-0.736,1.671-1.112
		c0.775-0.376,1.77-0.726,2.584-0.965c0.816-0.238,1.451-0.367,2.008-0.469c0.558-0.103,1.034-0.174,1.501-0.211
		c0.468-0.035,0.926-0.035,1.373,0c0.447,0.037,0.885,0.108,1.263,0.203c0.377,0.091,0.695,0.2,0.975,0.377
		c0.277,0.173,0.516,0.411,0.635,0.68c0.12,0.266,0.12,0.562,0.021,0.771c-0.101,0.212-0.299,0.341-0.527,0.414
		c-0.228,0.072-0.487,0.092-0.795,0c-0.308-0.093-0.667-0.295-1.043-0.562c-0.377-0.267-0.776-0.599-1.292-1.112
		c-0.517-0.514-1.154-1.211-1.689-1.892c-0.536-0.681-0.977-1.341-1.273-1.901s-0.457-1.021-0.586-1.479
		c-0.129-0.46-0.229-0.92-0.269-1.333c-0.038-0.413-0.021-0.781,0.02-1.076c0.039-0.293,0.1-0.516,0.199-0.662
		c0.099-0.146,0.238-0.22,0.338-0.256c0.099-0.037,0.16-0.037,0.219-0.047s0.118-0.027,0.209,0c0.086,0.025,0.202,0.097,0.316,0.169
		"/>
</g>
<g>
	<g>
		
			<linearGradient id="SVGID_1_" gradientUnits="userSpaceOnUse" x1="-21.9355" y1="282.9658" x2="-21.9355" y2="283.5138" gradientTransform="matrix(0.7071 -0.7071 -0.7071 -0.7071 289.9999 197.8193)">
			<stop  offset="0" style="stop-color:#666666"/>
			<stop  offset="0.7752" style="stop-color:#000000"/>
			<stop  offset="1" style="stop-color:#1A1A1A"/>
		</linearGradient>
		<path fill="url(#SVGID_1_)" d="M73.495,13.753c0.125,0.125,0.543-0.091,0.934-0.482c0.393-0.393,0.609-0.811,0.484-0.934
			c-0.125-0.125-0.542,0.091-0.934,0.483S73.372,13.629,73.495,13.753z"/>
		
			<linearGradient id="SVGID_2_" gradientUnits="userSpaceOnUse" x1="-22.9375" y1="282.7461" x2="-20.9316" y2="282.7461" gradientTransform="matrix(0.7071 -0.7071 -0.7071 -0.7071 289.9999 197.8193)">
			<stop  offset="0" style="stop-color:#2B2C33"/>
			<stop  offset="0.0963" style="stop-color:#898D9C"/>
			<stop  offset="0.3028" style="stop-color:#C5C7CF"/>
			<stop  offset="0.3716" style="stop-color:#4B4C56"/>
			<stop  offset="0.4404" style="stop-color:#24242F"/>
			<stop  offset="0.5275" style="stop-color:#2D2E33"/>
			<stop  offset="0.6514" style="stop-color:#F2F4F6"/>
			<stop  offset="0.8073" style="stop-color:#F2F4FA"/>
			<stop  offset="0.8945" style="stop-color:#42454D"/>
			<stop  offset="0.9633" style="stop-color:#8E8F99"/>
		</linearGradient>
		<path fill="url(#SVGID_2_)" d="M74.429,13.271c-0.391,0.392-0.809,0.607-0.934,0.482l0.485,0.485
			c0.124,0.125,0.543-0.093,0.934-0.483c0.392-0.392,0.608-0.811,0.484-0.936l-0.485-0.483
			C75.038,12.46,74.821,12.878,74.429,13.271z"/>
		<path opacity="0.5" fill="#A6A8AB" enable-background="new    " d="M74.429,13.271c-0.391,0.392-0.809,0.607-0.934,0.482
			l0.052,0.05c0.123,0.124,0.541-0.091,0.933-0.482c0.393-0.392,0.607-0.811,0.483-0.935l-0.05-0.049
			C75.038,12.46,74.821,12.878,74.429,13.271z"/>
		<path opacity="0.5" fill="#A6A8AB" enable-background="new    " d="M74.864,13.705c-0.392,0.392-0.81,0.606-0.934,0.481
			l0.05,0.052c0.124,0.125,0.543-0.093,0.934-0.483c0.392-0.392,0.608-0.811,0.484-0.936l-0.051-0.049
			C75.472,12.895,75.256,13.313,74.864,13.705z"/>
		
			<linearGradient id="SVGID_3_" gradientUnits="userSpaceOnUse" x1="-22.9385" y1="278.7695" x2="-20.9316" y2="278.7695" gradientTransform="matrix(0.7071 -0.7071 -0.7071 -0.7071 289.9999 197.8193)">
			<stop  offset="0" style="stop-color:#000000"/>
			<stop  offset="0.0872" style="stop-color:#19191A"/>
			<stop  offset="0.3028" style="stop-color:#313133"/>
			<stop  offset="0.4679" style="stop-color:#000000"/>
			<stop  offset="0.5229" style="stop-color:#000000"/>
			<stop  offset="0.5917" style="stop-color:#333131"/>
			<stop  offset="0.7064" style="stop-color:#807E7E"/>
			<stop  offset="0.7523" style="stop-color:#A4A4A4"/>
			<stop  offset="0.8028" style="stop-color:#B3B3B3"/>
			<stop  offset="0.8624" style="stop-color:#404040"/>
			<stop  offset="1" style="stop-color:#1A1A1A"/>
		</linearGradient>
		<path fill="url(#SVGID_3_)" d="M74.914,13.755c-0.391,0.391-0.81,0.608-0.934,0.483l5.139,5.14
			c0.125,0.125,0.544-0.092,0.935-0.483c0.392-0.391,0.609-0.81,0.484-0.935l-5.14-5.141C75.522,12.944,75.306,13.363,74.914,13.755
			z"/>
		
			<linearGradient id="SVGID_4_" gradientUnits="userSpaceOnUse" x1="-22.7896" y1="283.4922" x2="-21.083" y2="283.4922" gradientTransform="matrix(0.7071 -0.7071 -0.7071 -0.7071 289.9999 197.8193)">
			<stop  offset="0" style="stop-color:#898D9C"/>
			<stop  offset="0.3028" style="stop-color:#C5C7CF"/>
			<stop  offset="0.3716" style="stop-color:#4B4C56"/>
			<stop  offset="0.4404" style="stop-color:#24242F"/>
			<stop  offset="0.5275" style="stop-color:#2D2E33"/>
			<stop  offset="0.6514" style="stop-color:#F2F4F6"/>
			<stop  offset="0.8073" style="stop-color:#F2F4FA"/>
			<stop  offset="1" style="stop-color:#8E8F99"/>
		</linearGradient>
		<path fill="url(#SVGID_4_)" d="M74.783,12.423c-0.003-0.004-0.004-0.01-0.009-0.014c-0.015-0.014-0.033-0.021-0.057-0.026
			c-0.103-0.06-0.299-0.172-0.577-0.304c-0.124,0.17-0.26,0.336-0.411,0.489c-0.154,0.152-0.32,0.287-0.49,0.413
			c0.136,0.281,0.256,0.487,0.321,0.593c0.005,0.022,0.011,0.043,0.024,0.058c0.004,0.002,0.011,0.002,0.015,0.006
			c0.005,0.01,0.01,0.018,0.01,0.018l0.009-0.008c0.134,0.054,0.455-0.126,0.757-0.438s0.475-0.636,0.418-0.769l0.006-0.008
			C74.799,12.434,74.793,12.43,74.783,12.423z"/>
		
			<linearGradient id="SVGID_5_" gradientUnits="userSpaceOnUse" x1="-21.8574" y1="283.5615" x2="-21.2979" y2="283.7137" gradientTransform="matrix(0.7071 -0.7071 -0.7071 -0.7071 289.9999 197.8193)">
			<stop  offset="0.5917" style="stop-color:#FFFFFF;stop-opacity:0"/>
			<stop  offset="0.9312" style="stop-color:#666666"/>
			<stop  offset="1" style="stop-color:#808080"/>
		</linearGradient>
		<path fill="url(#SVGID_5_)" d="M74.783,12.423c-0.003-0.004-0.004-0.01-0.009-0.014c-0.015-0.014-0.033-0.021-0.057-0.026
			c-0.103-0.06-0.299-0.172-0.577-0.304c-0.124,0.17-0.26,0.336-0.411,0.489c-0.154,0.152-0.32,0.287-0.49,0.413
			c0.136,0.281,0.256,0.487,0.321,0.593c0.005,0.022,0.011,0.043,0.024,0.058c0.004,0.002,0.011,0.002,0.015,0.006
			c0.005,0.01,0.01,0.018,0.01,0.018l0.009-0.008c0.134,0.054,0.455-0.126,0.757-0.438s0.475-0.636,0.418-0.769l0.006-0.008
			C74.799,12.434,74.793,12.43,74.783,12.423z"/>
		
			<linearGradient id="SVGID_6_" gradientUnits="userSpaceOnUse" x1="1064.7305" y1="283.5625" x2="1065.2893" y2="283.7145" gradientTransform="matrix(-0.7071 0.7071 -0.7071 -0.7071 1027.3057 -539.4864)">
			<stop  offset="0.5917" style="stop-color:#FFFFFF;stop-opacity:0"/>
			<stop  offset="0.9862" style="stop-color:#808080"/>
		</linearGradient>
		<path fill="url(#SVGID_6_)" d="M73.583,13.623c-0.002-0.003-0.009-0.003-0.014-0.009c-0.014-0.014-0.021-0.033-0.024-0.056
			c-0.062-0.104-0.172-0.299-0.306-0.577c0.17-0.125,0.336-0.26,0.49-0.412c0.152-0.154,0.289-0.319,0.413-0.489
			c0.28,0.135,0.487,0.255,0.593,0.32c0.022,0.003,0.043,0.012,0.058,0.027c0.002,0.003,0.003,0.009,0.006,0.012
			c0.011,0.007,0.017,0.011,0.017,0.011l-0.007,0.009c0.054,0.134-0.126,0.453-0.438,0.756c-0.312,0.302-0.637,0.475-0.769,0.418
			l-0.008,0.007C73.595,13.64,73.589,13.633,73.583,13.623z"/>
		
			<linearGradient id="SVGID_7_" gradientUnits="userSpaceOnUse" x1="-21.9346" y1="274.9961" x2="-21.9348" y2="275.3149" gradientTransform="matrix(0.7071 -0.7071 -0.7071 -0.7071 289.9999 197.8193)">
			<stop  offset="0" style="stop-color:#232323"/>
			<stop  offset="0.6651" style="stop-color:#232323;stop-opacity:0.5"/>
			<stop  offset="1" style="stop-color:#808080;stop-opacity:0.5"/>
		</linearGradient>
		<path fill="url(#SVGID_7_)" d="M80.054,18.895c0.392-0.391,0.609-0.81,0.484-0.935l-1.419,1.418
			C79.244,19.503,79.663,19.286,80.054,18.895z"/>
		
			<linearGradient id="SVGID_8_" gradientUnits="userSpaceOnUse" x1="-21.9355" y1="283.9385" x2="-21.9355" y2="283.6714" gradientTransform="matrix(0.7071 -0.7071 -0.7071 -0.7071 289.9999 197.8193)">
			<stop  offset="0" style="stop-color:#232323"/>
			<stop  offset="1" style="stop-color:#232323;stop-opacity:0"/>
		</linearGradient>
		<path opacity="0.5" fill="url(#SVGID_8_)" enable-background="new    " d="M73.904,12.745c0.187-0.188,0.335-0.384,0.436-0.567
			c-0.06-0.031-0.126-0.063-0.199-0.098c-0.124,0.17-0.26,0.336-0.411,0.489c-0.154,0.152-0.32,0.287-0.49,0.413
			c0.034,0.07,0.067,0.138,0.099,0.198C73.521,13.079,73.718,12.931,73.904,12.745z"/>
		
			<linearGradient id="SVGID_9_" gradientUnits="userSpaceOnUse" x1="-21.9355" y1="284.125" x2="-21.9355" y2="284.5629" gradientTransform="matrix(0.7071 -0.7071 -0.7071 -0.7071 289.9999 197.8193)">
			<stop  offset="0" style="stop-color:#666666"/>
			<stop  offset="0.7752" style="stop-color:#000000"/>
			<stop  offset="1" style="stop-color:#1A1A1A"/>
		</linearGradient>
		<path fill="url(#SVGID_9_)" d="M72.857,12.833c0.101,0.098,0.434-0.074,0.747-0.388c0.313-0.313,0.487-0.648,0.389-0.747
			c-0.1-0.101-0.436,0.074-0.748,0.387C72.932,12.398,72.759,12.733,72.857,12.833z"/>
		
			<linearGradient id="SVGID_10_" gradientUnits="userSpaceOnUse" x1="-22.7383" y1="284.0039" x2="-21.1328" y2="284.0039" gradientTransform="matrix(0.7071 -0.7071 -0.7071 -0.7071 289.9999 197.8193)">
			<stop  offset="0" style="stop-color:#2B2C33"/>
			<stop  offset="0.0963" style="stop-color:#898D9C"/>
			<stop  offset="0.3028" style="stop-color:#C5C7CF"/>
			<stop  offset="0.3716" style="stop-color:#4B4C56"/>
			<stop  offset="0.4404" style="stop-color:#24242F"/>
			<stop  offset="0.5275" style="stop-color:#2D2E33"/>
			<stop  offset="0.6514" style="stop-color:#F2F4F6"/>
			<stop  offset="0.8073" style="stop-color:#F2F4FA"/>
			<stop  offset="0.8945" style="stop-color:#42454D"/>
			<stop  offset="0.9633" style="stop-color:#8E8F99"/>
		</linearGradient>
		<path fill="url(#SVGID_10_)" d="M73.604,12.445c-0.313,0.314-0.646,0.486-0.747,0.388l0.312,0.31
			c0.1,0.101,0.434-0.073,0.747-0.386c0.313-0.314,0.486-0.649,0.386-0.749l-0.309-0.31C74.092,11.797,73.918,12.132,73.604,12.445z
			"/>
		<path opacity="0.5" fill="#A6A8AB" enable-background="new    " d="M73.604,12.445c-0.313,0.314-0.646,0.486-0.747,0.388
			l0.041,0.04c0.099,0.1,0.433-0.075,0.746-0.388c0.313-0.313,0.487-0.648,0.389-0.748l-0.04-0.039
			C74.092,11.797,73.918,12.132,73.604,12.445z"/>
		<path opacity="0.5" fill="#A6A8AB" enable-background="new    " d="M73.876,12.716c-0.313,0.313-0.647,0.486-0.749,0.387
			l0.042,0.04c0.1,0.101,0.434-0.073,0.747-0.386c0.313-0.314,0.486-0.649,0.386-0.749l-0.038-0.04
			C74.362,12.068,74.188,12.402,73.876,12.716z"/>
		
			<linearGradient id="SVGID_11_" gradientUnits="userSpaceOnUse" x1="-21.9355" y1="285.0244" x2="-21.9355" y2="285.3748" gradientTransform="matrix(0.7071 -0.7071 -0.7071 -0.7071 289.9999 197.8193)">
			<stop  offset="0" style="stop-color:#666666"/>
			<stop  offset="0.7752" style="stop-color:#000000"/>
			<stop  offset="1" style="stop-color:#1A1A1A"/>
		</linearGradient>
		<path fill="url(#SVGID_11_)" d="M72.366,12.114c0.08,0.08,0.348-0.058,0.598-0.308c0.251-0.251,0.39-0.52,0.31-0.599
			c-0.078-0.08-0.348,0.06-0.598,0.311C72.426,11.768,72.287,12.035,72.366,12.114z"/>
		
			<linearGradient id="SVGID_12_" gradientUnits="userSpaceOnUse" x1="-22.5771" y1="284.7109" x2="-21.2939" y2="284.7109" gradientTransform="matrix(0.7071 -0.7071 -0.7071 -0.7071 289.9999 197.8193)">
			<stop  offset="0" style="stop-color:#2B2C33"/>
			<stop  offset="0.0963" style="stop-color:#898D9C"/>
			<stop  offset="0.3028" style="stop-color:#C5C7CF"/>
			<stop  offset="0.3716" style="stop-color:#4B4C56"/>
			<stop  offset="0.4404" style="stop-color:#24242F"/>
			<stop  offset="0.5275" style="stop-color:#2D2E33"/>
			<stop  offset="0.6514" style="stop-color:#F2F4F6"/>
			<stop  offset="0.8073" style="stop-color:#F2F4FA"/>
			<stop  offset="0.8945" style="stop-color:#42454D"/>
			<stop  offset="0.9633" style="stop-color:#8E8F99"/>
		</linearGradient>
		<path fill="url(#SVGID_12_)" d="M72.964,11.806c-0.25,0.25-0.518,0.388-0.598,0.308l0.557,0.557
			c0.08,0.079,0.348-0.06,0.598-0.309c0.25-0.251,0.39-0.519,0.31-0.598l-0.557-0.557C73.354,11.286,73.215,11.555,72.964,11.806z"
			/>
		<path opacity="0.5" fill="#A6A8AB" enable-background="new    " d="M72.964,11.806c-0.25,0.25-0.518,0.388-0.598,0.308
			l0.031,0.033c0.081,0.08,0.347-0.06,0.598-0.311c0.252-0.25,0.391-0.518,0.311-0.597l-0.032-0.033
			C73.354,11.286,73.215,11.555,72.964,11.806z"/>
		<path opacity="0.5" fill="#A6A8AB" enable-background="new    " d="M73.489,12.329c-0.252,0.251-0.519,0.391-0.599,0.31
			l0.032,0.032c0.08,0.079,0.348-0.06,0.598-0.309c0.25-0.251,0.39-0.519,0.31-0.598l-0.032-0.033
			C73.878,11.811,73.739,12.079,73.489,12.329z"/>
	</g>
	<g>
		
			<linearGradient id="SVGID_13_" gradientUnits="userSpaceOnUse" x1="-25.3662" y1="286.6348" x2="-18.3274" y2="294.1716" gradientTransform="matrix(0.7071 -0.7071 -0.7071 -0.7071 289.9999 197.8193)">
			<stop  offset="0" style="stop-color:#BBBFC0"/>
			<stop  offset="1" style="stop-color:#7C7E7C"/>
		</linearGradient>
		<path fill="url(#SVGID_13_)" d="M72.757,4.511c1.956,1.956,1.957,5.128,0,7.085c-1.958,1.958-5.13,1.958-7.088,0
			c-1.957-1.957-1.957-5.129,0.001-7.086C67.627,2.553,70.799,2.553,72.757,4.511z"/>
		
			<linearGradient id="SVGID_14_" gradientUnits="userSpaceOnUse" x1="-21.9751" y1="290.2451" x2="-17.9691" y2="294.5345" gradientTransform="matrix(0.7071 -0.7071 -0.7071 -0.7071 289.9999 197.8193)">
			<stop  offset="0" style="stop-color:#CCCCCC;stop-opacity:0"/>
			<stop  offset="1" style="stop-color:#FFFFFF"/>
		</linearGradient>
		<path opacity="0.4" fill="url(#SVGID_14_)" enable-background="new    " d="M65.67,4.51c-0.894,0.892-1.373,2.038-1.452,3.205
			c0.114-1.103,0.594-2.174,1.439-3.02c1.956-1.957,5.128-1.957,7.086,0c1.063,1.064,1.545,2.488,1.451,3.881
			c0.151-1.451-0.327-2.956-1.438-4.066C70.799,2.553,67.627,2.553,65.67,4.51z"/>
		
			<linearGradient id="SVGID_15_" gradientUnits="userSpaceOnUse" x1="1068.6592" y1="-355.1514" x2="1072.6851" y2="-350.8406" gradientTransform="matrix(-0.7071 0.7071 0.7071 0.7071 1075.9766 -496.5908)">
			<stop  offset="0" style="stop-color:#CCCCCC;stop-opacity:0"/>
			<stop  offset="1" style="stop-color:#B3B3B3"/>
		</linearGradient>
		<path fill="url(#SVGID_15_)" d="M72.73,11.572c0.894-0.893,1.374-2.039,1.453-3.205c-0.116,1.102-0.595,2.173-1.439,3.019
			c-1.955,1.956-5.13,1.956-7.086,0c-1.064-1.064-1.482-2.518-1.388-3.91c-0.152,1.451,0.263,2.984,1.374,4.096
			C67.603,13.529,70.773,13.529,72.73,11.572z"/>
		<path fill="none" d="M65.693,11.572c1.944,1.943,5.095,1.943,7.038,0c1.944-1.944,1.945-5.094,0-7.038
			c-1.942-1.944-5.094-1.944-7.038,0C63.749,6.478,63.749,9.628,65.693,11.572z"/>
		
			<linearGradient id="SVGID_16_" gradientUnits="userSpaceOnUse" x1="-18.4839" y1="294.0996" x2="-25.3693" y2="286.5309" gradientTransform="matrix(0.7071 -0.7071 -0.7071 -0.7071 289.9999 197.8193)">
			<stop  offset="0" style="stop-color:#404040"/>
			<stop  offset="1" style="stop-color:#343434"/>
		</linearGradient>
		<path fill="url(#SVGID_16_)" d="M65.509,4.348c-2.047,2.046-2.047,5.364,0,7.41c2.046,2.045,5.362,2.045,7.409-0.001
			c2.044-2.045,2.045-5.362,0.001-7.408C70.871,2.303,67.555,2.303,65.509,4.348z M72.731,11.572c-1.943,1.944-5.094,1.944-7.038,0
			c-1.944-1.944-1.944-5.095,0-7.038c1.944-1.944,5.096-1.944,7.038,0C74.677,6.478,74.676,9.628,72.731,11.572z"/>
		
			<linearGradient id="SVGID_17_" gradientUnits="userSpaceOnUse" x1="-18.5874" y1="293.9873" x2="-25.2668" y2="286.6451" gradientTransform="matrix(0.7071 -0.7071 -0.7071 -0.7071 289.9999 197.8193)">
			<stop  offset="0" style="stop-color:#666666"/>
			<stop  offset="0.5046" style="stop-color:#333333"/>
			<stop  offset="1" style="stop-color:#808080"/>
		</linearGradient>
		<path opacity="0.5" fill="url(#SVGID_17_)" enable-background="new    " d="M65.62,4.459c-1.985,1.986-1.985,5.203,0,7.188
			c1.984,1.983,5.2,1.984,7.186-0.001c1.983-1.983,1.983-5.2,0-7.186C70.82,2.475,67.604,2.475,65.62,4.459z M72.731,11.572
			c-1.943,1.944-5.094,1.944-7.038,0c-1.944-1.944-1.944-5.095,0-7.038c1.944-1.944,5.096-1.944,7.038,0
			C74.677,6.478,74.676,9.628,72.731,11.572z"/>
		<path fill="none" d="M66.045,11.22c1.749,1.75,4.586,1.75,6.335,0c1.75-1.749,1.75-4.584,0-6.333c-1.749-1.75-4.586-1.75-6.335,0
			C64.296,6.635,64.296,9.471,66.045,11.22z"/>
		
			<linearGradient id="SVGID_18_" gradientUnits="userSpaceOnUse" x1="-21.9053" y1="290.3193" x2="-18.9089" y2="293.3158" gradientTransform="matrix(0.7071 -0.7071 -0.7071 -0.7071 289.9999 197.8193)">
			<stop  offset="0" style="stop-color:#CCCCCC;stop-opacity:0"/>
			<stop  offset="1" style="stop-color:#FFFFFF"/>
		</linearGradient>
		<path fill="url(#SVGID_18_)" d="M64.811,7.227c1.66,0.306,4.685,0.641,8.832,0.196C73.511,6.495,73.094,5.6,72.38,4.886
			c-1.749-1.75-4.586-1.75-6.335,0C65.381,5.549,64.972,6.37,64.811,7.227z"/>
		
			<linearGradient id="SVGID_19_" gradientUnits="userSpaceOnUse" x1="-22.8135" y1="289.4824" x2="-25.6905" y2="286.7802" gradientTransform="matrix(0.7071 -0.7071 -0.7071 -0.7071 289.9999 197.8193)">
			<stop  offset="0" style="stop-color:#CCCCCC;stop-opacity:0"/>
			<stop  offset="1" style="stop-color:#CCCCCC"/>
		</linearGradient>
		<path fill="url(#SVGID_19_)" d="M69.241,10.784c-2.356,0-4.29-1.281-4.499-2.915c-0.049,1.206,0.382,2.429,1.303,3.351
			c1.749,1.75,4.586,1.75,6.335,0c0.853-0.852,1.286-1.961,1.308-3.077C73.311,9.644,71.465,10.785,69.241,10.784z"/>
		
			<linearGradient id="SVGID_20_" gradientUnits="userSpaceOnUse" x1="-23.0122" y1="289.4033" x2="-25.6165" y2="287.2269" gradientTransform="matrix(0.7071 -0.7071 -0.7071 -0.7071 289.9999 197.8193)">
			<stop  offset="0" style="stop-color:#CCCCCC;stop-opacity:0"/>
			<stop  offset="1" style="stop-color:#FFFFFF"/>
		</linearGradient>
		<path opacity="0.3" fill="url(#SVGID_20_)" enable-background="new    " d="M72.407,10.745c-1.75,1.75-4.586,1.75-6.336,0
			c-0.714-0.714-1.131-1.611-1.26-2.541c-0.03-0.109-0.055-0.22-0.069-0.334c-0.049,1.206,0.382,2.429,1.303,3.351
			c1.749,1.75,4.586,1.75,6.335,0c0.853-0.852,1.286-1.961,1.308-3.077c-0.005,0.022-0.015,0.043-0.02,0.064
			C73.537,9.136,73.121,10.031,72.407,10.745z"/>
	</g>
</g>
<g>
	<path fill="#FFFFFF" d="M33.009,16.007h-2.324l-0.607-1.764h-3.229l-0.607,1.764h-2.268l3.223-8.725h2.59L33.009,16.007z
		 M29.537,12.644l-1.073-3.126l-1.074,3.126H29.537z"/>
	<path fill="#FFFFFF" d="M40.703,16.007h-2.115V15.28c-0.39,0.297-0.747,0.522-1.071,0.677s-0.71,0.231-1.159,0.231
		c-0.726,0-1.285-0.209-1.677-0.627s-0.588-1.035-0.588-1.852V9.427h2.115v3.264c0,0.332,0.011,0.608,0.032,0.829
		s0.071,0.403,0.149,0.548c0.074,0.145,0.187,0.25,0.337,0.316s0.36,0.1,0.63,0.1c0.18,0,0.379-0.033,0.598-0.1
		s0.43-0.164,0.633-0.293V9.427h2.115V16.007z"/>
	<path fill="#FFFFFF" d="M49.094,16.007h-2.115v-0.686c-0.363,0.297-0.703,0.516-1.02,0.656c-0.315,0.141-0.68,0.211-1.094,0.211
		c-0.8,0-1.439-0.309-1.919-0.926s-0.72-1.449-0.72-2.496c0-0.559,0.081-1.054,0.243-1.485c0.162-0.432,0.383-0.802,0.665-1.11
		c0.265-0.293,0.587-0.521,0.965-0.683s0.757-0.243,1.136-0.243c0.394,0,0.717,0.042,0.969,0.126c0.251,0.084,0.51,0.19,0.775,0.319
		V6.89h2.115V16.007z M46.979,14.195v-3.233c-0.148-0.063-0.305-0.107-0.469-0.135c-0.163-0.027-0.313-0.041-0.449-0.041
		c-0.554,0-0.969,0.173-1.246,0.52c-0.276,0.346-0.415,0.826-0.415,1.44c0,0.646,0.111,1.114,0.333,1.405
		c0.223,0.292,0.58,0.438,1.07,0.438c0.191,0,0.395-0.036,0.608-0.108S46.814,14.313,46.979,14.195z"/>
	<path fill="#FFFFFF" d="M53.26,8.489h-2.232v-1.6h2.232V8.489z M53.201,16.007h-2.115v-6.58h2.115V16.007z"/>
	<path fill="#FFFFFF" d="M59.395,15.949c-0.227,0.058-0.467,0.104-0.721,0.137s-0.564,0.05-0.932,0.05
		c-0.82,0-1.432-0.166-1.832-0.498s-0.6-0.9-0.6-1.705v-3.076h-0.867v-1.43h0.867V7.546h2.115v1.881h1.969v1.43h-1.969v2.336
		c0,0.23,0.002,0.432,0.006,0.604c0.004,0.172,0.035,0.326,0.093,0.463c0.055,0.138,0.151,0.246,0.29,0.326
		c0.138,0.08,0.34,0.12,0.604,0.12c0.109,0,0.252-0.023,0.43-0.07s0.301-0.09,0.371-0.129h0.176V15.949z"/>
</g>
</svg>
