<?xml version="1.0" encoding="utf-8"?>
<!-- Generator: Adobe Illustrator 16.0.0, SVG Export Plug-In . SVG Version: 6.00 Build 0)  -->
<svg version="1.2" baseProfile="tiny" id="Layer_1" xmlns="http://www.w3.org/2000/svg" xmlns:xlink="http://www.w3.org/1999/xlink"
	 x="0px" y="0px" width="57.482px" height="24px" viewBox="699.75 2084.354 57.482 24" xml:space="preserve">
<circle fill="#FFFFFF" cx="740.314" cy="2096.438" r="7.899"/>
<g>
	<path fill="#00B184" d="M740.314,2087.438c-4.971,0-9,4.029-9,9s4.029,9,9,9c4.97,0,9-4.029,9-9S745.284,2087.438,740.314,2087.438
		z M740.314,2104.165c-4.268,0-7.728-3.46-7.728-7.728s3.46-7.728,7.728-7.728s7.727,3.46,7.727,7.728
		S744.582,2104.165,740.314,2104.165z"/>
	<circle fill="#00B184" cx="740.314" cy="2096.438" r="6.962"/>
	<polygon fill="#FFFFFF" points="742.544,2094.939 742.593,2094.939 742.593,2094.967 745.16,2096.458 742.593,2097.93 
		742.593,2097.937 742.58,2097.937 739.706,2099.586 739.706,2097.937 735.469,2097.937 735.469,2094.938 739.706,2094.938 
		739.706,2093.289 	"/>
</g>
<g>
	<path fill="#FFFFFF" d="M717.194,2099.689c-0.456,0.178-1.06,0.354-1.812,0.53c-0.752,0.175-1.501,0.263-2.249,0.263
		c-1.732,0-3.087-0.471-4.067-1.411c-0.98-0.941-1.47-2.241-1.47-3.9c0-1.581,0.495-2.856,1.483-3.824
		c0.989-0.969,2.368-1.453,4.136-1.453c0.67,0,1.308,0.061,1.914,0.182c0.606,0.12,1.281,0.36,2.023,0.721v2.386h-0.294
		c-0.127-0.096-0.314-0.231-0.561-0.407c-0.246-0.175-0.483-0.324-0.711-0.447c-0.264-0.146-0.573-0.271-0.926-0.376
		s-0.728-0.157-1.125-0.157c-0.465,0-0.886,0.068-1.265,0.205s-0.718,0.347-1.019,0.629c-0.287,0.273-0.514,0.621-0.68,1.043
		c-0.167,0.421-0.25,0.907-0.25,1.459c0,1.126,0.298,1.987,0.896,2.584s1.479,0.896,2.646,0.896c0.1,0,0.211-0.002,0.332-0.007
		s0.231-0.012,0.332-0.021v-1.996h-2.03v-1.921h4.696V2099.689z"/>
	<path fill="#FFFFFF" d="M727.257,2096.436c0,1.263-0.368,2.257-1.104,2.983c-0.736,0.728-1.77,1.091-3.1,1.091
		s-2.364-0.363-3.1-1.091c-0.736-0.727-1.104-1.721-1.104-2.983c0-1.271,0.37-2.27,1.111-2.994s1.771-1.087,3.093-1.087
		c1.34,0,2.375,0.364,3.107,1.094S727.257,2095.173,727.257,2096.436z M724.229,2098.302c0.16-0.196,0.279-0.432,0.359-0.707
		c0.08-0.276,0.12-0.658,0.12-1.146c0-0.451-0.041-0.829-0.123-1.135s-0.196-0.549-0.342-0.731
		c-0.146-0.187-0.321-0.319-0.526-0.396s-0.426-0.116-0.663-0.116s-0.448,0.032-0.632,0.096s-0.361,0.191-0.53,0.383
		c-0.15,0.178-0.27,0.422-0.359,0.731s-0.133,0.699-0.133,1.169c0,0.419,0.039,0.782,0.116,1.091
		c0.078,0.307,0.191,0.555,0.342,0.741c0.146,0.178,0.32,0.308,0.523,0.39s0.434,0.123,0.694,0.123c0.223,0,0.437-0.037,0.639-0.113
		C723.915,2098.606,724.087,2098.479,724.229,2098.302z"/>
</g>
</svg>
