<?xml version="1.0" encoding="utf-8"?>
<!-- Generator: Adobe Illustrator 16.0.0, SVG Export Plug-In . SVG Version: 6.00 Build 0)  -->
<!DOCTYPE svg PUBLIC "-//W3C//DTD SVG 1.1//EN" "http://www.w3.org/Graphics/SVG/1.1/DTD/svg11.dtd">
<svg version="1.1" id="Layer_1" xmlns="http://www.w3.org/2000/svg" xmlns:xlink="http://www.w3.org/1999/xlink" x="0px" y="0px"
	 width="62.241px" height="24px" viewBox="-4.759 0 62.241 24" enable-background="new -4.759 0 62.241 24" xml:space="preserve">
<circle fill="#FFFFFF" cx="740.314" cy="2096.438" r="7.899"/>
<g>
	<path fill="#00B184" d="M740.314,2087.438c-4.972,0-9,4.029-9,9c0,4.972,4.028,9,9,9c4.97,0,9-4.028,9-9
		C749.314,2091.467,745.284,2087.438,740.314,2087.438z M740.314,2104.165c-4.269,0-7.729-3.46-7.729-7.728
		c0-4.269,3.46-7.729,7.729-7.729c4.268,0,7.727,3.46,7.727,7.729C748.041,2100.705,744.582,2104.165,740.314,2104.165z"/>
	<circle fill="#00B184" cx="740.314" cy="2096.438" r="6.962"/>
	<polygon fill="#FFFFFF" points="742.544,2094.939 742.593,2094.939 742.593,2094.967 745.16,2096.458 742.593,2097.93 
		742.593,2097.938 742.58,2097.938 739.706,2099.586 739.706,2097.938 735.469,2097.938 735.469,2094.938 739.706,2094.938 
		739.706,2093.289 	"/>
</g>
<g>
	<path fill="#FFFFFF" d="M717.194,2099.689c-0.456,0.178-1.061,0.354-1.813,0.529s-1.501,0.264-2.249,0.264
		c-1.731,0-3.087-0.472-4.066-1.411c-0.98-0.941-1.471-2.241-1.471-3.9c0-1.581,0.495-2.855,1.483-3.823
		c0.989-0.97,2.368-1.453,4.136-1.453c0.67,0,1.308,0.061,1.914,0.182c0.606,0.12,1.281,0.36,2.023,0.721v2.387h-0.295
		c-0.127-0.097-0.313-0.231-0.561-0.407c-0.246-0.175-0.482-0.324-0.711-0.447c-0.264-0.146-0.573-0.271-0.926-0.376
		c-0.354-0.105-0.729-0.157-1.125-0.157c-0.465,0-0.887,0.068-1.266,0.205c-0.379,0.138-0.718,0.347-1.019,0.629
		c-0.287,0.273-0.514,0.621-0.68,1.043c-0.167,0.421-0.25,0.907-0.25,1.459c0,1.126,0.298,1.987,0.896,2.584
		s1.479,0.896,2.646,0.896c0.1,0,0.211-0.002,0.332-0.007c0.12-0.006,0.23-0.013,0.332-0.021v-1.996h-2.03v-1.921h4.695v5.022
		H717.194z"/>
	<path fill="#FFFFFF" d="M727.257,2096.436c0,1.264-0.368,2.258-1.104,2.983c-0.736,0.728-1.771,1.091-3.101,1.091
		s-2.363-0.363-3.1-1.091s-1.104-1.721-1.104-2.983c0-1.271,0.37-2.27,1.111-2.993s1.771-1.087,3.093-1.087
		c1.341,0,2.375,0.363,3.107,1.094S727.257,2095.173,727.257,2096.436z M724.228,2098.302c0.16-0.196,0.279-0.432,0.359-0.707
		s0.12-0.657,0.12-1.146c0-0.451-0.041-0.829-0.123-1.135c-0.082-0.307-0.196-0.55-0.342-0.731
		c-0.146-0.187-0.321-0.319-0.526-0.396c-0.205-0.077-0.426-0.116-0.663-0.116c-0.236,0-0.447,0.032-0.632,0.096
		c-0.184,0.063-0.361,0.19-0.53,0.383c-0.149,0.179-0.27,0.423-0.358,0.731s-0.133,0.699-0.133,1.169
		c0,0.419,0.039,0.782,0.115,1.091c0.078,0.307,0.191,0.555,0.343,0.741c0.146,0.178,0.319,0.308,0.522,0.39
		s0.435,0.123,0.694,0.123c0.223,0,0.437-0.037,0.639-0.113C723.915,2098.605,724.087,2098.479,724.228,2098.302z"/>
</g>
<circle fill="#FFFFFF" cx="44.066" cy="11.153" r="7.835"/>
<g>
	<path fill="#00B184" d="M35.332,11.105c0,4.807,3.898,8.706,8.704,8.706c4.809,0,8.705-3.898,8.705-8.706S48.844,2.4,44.036,2.4
		C39.23,2.4,35.332,6.298,35.332,11.105z M36.563,11.105c0-4.127,3.346-7.474,7.473-7.474c4.128,0,7.474,3.346,7.474,7.474
		c0,4.128-3.346,7.473-7.474,7.473C39.909,18.578,36.563,15.233,36.563,11.105z"/>
	<circle fill="#00B184" cx="44.036" cy="11.105" r="6.734"/>
	<polygon fill="#FFFFFF" points="44.624,8.06 44.624,9.655 48.722,9.655 48.722,12.556 44.624,12.556 44.624,14.15 41.845,12.556 
		41.833,12.556 41.833,12.548 39.349,11.125 41.833,9.682 41.833,9.656 41.879,9.656 	"/>
</g>
<g>
	<path fill="#FFFFFF" d="M7.152,13.182c0,0.422-0.085,0.799-0.255,1.131s-0.403,0.607-0.7,0.826
		c-0.344,0.258-0.722,0.441-1.134,0.551s-0.935,0.164-1.567,0.164h-3.809V7.129h3.387c0.703,0,1.218,0.023,1.544,0.07
		s0.649,0.15,0.97,0.311C5.92,7.678,6.167,7.904,6.329,8.187s0.243,0.606,0.243,0.97c0,0.422-0.111,0.794-0.334,1.116
		s-0.537,0.573-0.943,0.753v0.047c0.57,0.113,1.022,0.348,1.356,0.703S7.152,12.6,7.152,13.182z M4.269,9.596
		c0-0.145-0.036-0.289-0.108-0.434s-0.2-0.252-0.384-0.322C3.613,8.778,3.409,8.744,3.165,8.738S2.578,8.729,2.136,8.729H1.926
		v1.846h0.352c0.355,0,0.658-0.006,0.908-0.018s0.447-0.051,0.592-0.117c0.203-0.09,0.336-0.206,0.398-0.349
		S4.269,9.784,4.269,9.596z M4.814,13.146c0-0.277-0.054-0.49-0.161-0.641c-0.107-0.151-0.29-0.263-0.547-0.337
		c-0.175-0.051-0.417-0.078-0.725-0.082s-0.629-0.006-0.965-0.006H1.926v2.173h0.164c0.632,0,1.084-0.002,1.357-0.006
		c0.272-0.004,0.524-0.055,0.754-0.152c0.234-0.098,0.395-0.227,0.482-0.389C4.77,13.545,4.814,13.357,4.814,13.146z"/>
	<path fill="#FFFFFF" d="M12.695,15.156c-0.113,0.086-0.254,0.189-0.422,0.311s-0.326,0.217-0.475,0.287
		c-0.207,0.094-0.422,0.164-0.645,0.209s-0.467,0.066-0.732,0.066c-0.625,0-1.148-0.193-1.57-0.58s-0.633-0.881-0.633-1.482
		c0-0.48,0.107-0.873,0.322-1.178c0.215-0.304,0.52-0.544,0.914-0.72c0.391-0.176,0.875-0.301,1.453-0.375s1.178-0.129,1.799-0.164
		v-0.035c0-0.363-0.148-0.614-0.445-0.753s-0.734-0.208-1.313-0.208c-0.348,0-0.719,0.062-1.113,0.185s-0.678,0.218-0.85,0.284
		H8.793V9.415C9.015,9.356,9.378,9.287,9.88,9.207s1.005-0.12,1.509-0.12c1.199,0,2.065,0.185,2.599,0.554s0.8,0.948,0.8,1.737
		v4.476h-2.092V15.156z M12.695,14.133v-1.367c-0.285,0.023-0.594,0.057-0.926,0.097c-0.332,0.041-0.584,0.089-0.756,0.144
		c-0.211,0.066-0.372,0.162-0.483,0.289s-0.167,0.293-0.167,0.499c0,0.136,0.012,0.247,0.035,0.333s0.082,0.168,0.176,0.246
		c0.09,0.077,0.197,0.135,0.322,0.172s0.32,0.055,0.586,0.055c0.211,0,0.425-0.043,0.642-0.128
		C12.341,14.386,12.531,14.273,12.695,14.133z"/>
	<path fill="#FFFFFF" d="M20.154,16.029c-0.574,0-1.099-0.068-1.573-0.205s-0.888-0.348-1.239-0.633
		c-0.348-0.285-0.617-0.645-0.809-1.078s-0.287-0.941-0.287-1.523c0-0.613,0.103-1.142,0.308-1.587s0.491-0.814,0.858-1.107
		c0.355-0.277,0.766-0.48,1.23-0.609s0.947-0.193,1.447-0.193c0.449,0,0.863,0.049,1.242,0.146s0.733,0.225,1.061,0.381v1.799
		h-0.299c-0.082-0.07-0.181-0.152-0.295-0.246c-0.115-0.094-0.257-0.186-0.424-0.275c-0.16-0.086-0.335-0.157-0.526-0.214
		c-0.191-0.057-0.414-0.085-0.667-0.085c-0.562,0-0.994,0.179-1.296,0.536c-0.302,0.357-0.453,0.843-0.453,1.456
		c0,0.633,0.155,1.113,0.465,1.441c0.311,0.328,0.75,0.492,1.32,0.492c0.265,0,0.504-0.029,0.716-0.09
		c0.213-0.061,0.389-0.133,0.53-0.215c0.132-0.078,0.25-0.16,0.351-0.246c0.101-0.086,0.195-0.17,0.281-0.252h0.299v1.799
		c-0.332,0.156-0.679,0.281-1.041,0.373S20.592,16.029,20.154,16.029z"/>
	<path fill="#FFFFFF" d="M30.772,15.854h-2.456l-1.845-2.861l-0.569,0.701v2.16h-2.115V6.737h2.115v5.438l2.266-2.901h2.434
		l-2.365,2.836L30.772,15.854z"/>
</g>
</svg>
