<?xml version="1.0" encoding="utf-8"?>
<!-- Generator: Adobe Illustrator 16.0.0, SVG Export Plug-In . SVG Version: 6.00 Build 0)  -->
<svg version="1.2" baseProfile="tiny" id="Layer_1" xmlns="http://www.w3.org/2000/svg" xmlns:xlink="http://www.w3.org/1999/xlink"
	 x="0px" y="0px" width="88px" height="24px" viewBox="669.232 2045.354 88 24" xml:space="preserve">
<g>
	<path fill="#FFFFFF" d="M685.161,2061.276h-7.362v-10.179h7.362v1.969h-4.751v1.757h4.409v1.969h-4.409v2.516h4.751V2061.276z"/>
	<path fill="#FFFFFF" d="M695.251,2061.276h-2.872l-1.64-2.299l-1.685,2.299h-2.813l3.028-3.844l-2.98-3.833h2.871l1.613,2.253
		l1.622-2.253h2.822l-2.987,3.781L695.251,2061.276z"/>
	<path fill="#FFFFFF" d="M704.603,2057.332c0,0.634-0.097,1.21-0.29,1.729s-0.447,0.948-0.761,1.285
		c-0.328,0.355-0.699,0.624-1.113,0.807c-0.414,0.183-0.858,0.273-1.331,0.273c-0.437,0-0.808-0.047-1.113-0.141
		c-0.305-0.093-0.617-0.224-0.936-0.393v3.199h-2.468V2053.6h2.468v0.8c0.378-0.301,0.764-0.545,1.157-0.731s0.848-0.28,1.362-0.28
		c0.956,0,1.699,0.351,2.229,1.053S704.603,2056.106,704.603,2057.332z M702.066,2057.384c0-0.746-0.127-1.288-0.382-1.625
		c-0.255-0.337-0.657-0.505-1.208-0.505c-0.232,0-0.471,0.035-0.716,0.105c-0.246,0.071-0.48,0.172-0.703,0.304v3.856
		c0.164,0.064,0.339,0.105,0.525,0.123c0.186,0.019,0.37,0.027,0.552,0.027c0.65,0,1.134-0.189,1.453-0.57
		C701.907,2058.72,702.066,2058.148,702.066,2057.384z"/>
	<path fill="#FFFFFF" d="M714.228,2057.441c0,1.263-0.368,2.257-1.104,2.983c-0.736,0.728-1.77,1.091-3.1,1.091
		s-2.364-0.363-3.1-1.091c-0.736-0.727-1.104-1.721-1.104-2.983c0-1.271,0.37-2.27,1.111-2.994s1.771-1.087,3.093-1.087
		c1.34,0,2.375,0.364,3.107,1.094S714.228,2056.179,714.228,2057.441z M711.199,2059.308c0.16-0.196,0.279-0.432,0.359-0.707
		c0.08-0.276,0.12-0.658,0.12-1.146c0-0.451-0.041-0.829-0.123-1.135s-0.196-0.549-0.342-0.731
		c-0.146-0.187-0.321-0.319-0.526-0.396s-0.426-0.116-0.663-0.116s-0.448,0.032-0.632,0.096s-0.361,0.191-0.53,0.383
		c-0.15,0.178-0.27,0.422-0.359,0.731s-0.133,0.699-0.133,1.169c0,0.419,0.039,0.782,0.116,1.091
		c0.078,0.307,0.191,0.555,0.342,0.741c0.146,0.178,0.32,0.308,0.523,0.39s0.434,0.123,0.694,0.123c0.223,0,0.437-0.037,0.639-0.113
		C710.886,2059.612,711.058,2059.485,711.199,2059.308z"/>
	<path fill="#FFFFFF" d="M721.556,2055.944h-0.218c-0.104-0.036-0.273-0.063-0.505-0.082s-0.425-0.027-0.58-0.027
		c-0.35,0-0.659,0.022-0.928,0.068c-0.268,0.046-0.557,0.123-0.866,0.232v5.141h-2.468v-7.677h2.468v1.128
		c0.541-0.465,1.012-0.773,1.412-0.926c0.4-0.153,0.769-0.229,1.105-0.229c0.086,0,0.184,0.002,0.293,0.007
		c0.109,0.005,0.205,0.012,0.287,0.021V2055.944z"/>
	<path fill="#FFFFFF" d="M727.858,2061.209c-0.264,0.068-0.544,0.121-0.841,0.16c-0.296,0.038-0.659,0.058-1.087,0.058
		c-0.957,0-1.669-0.193-2.136-0.581s-0.701-1.051-0.701-1.989v-3.589h-1.012v-1.668h1.012v-2.194h2.468v2.194h2.297v1.668h-2.297
		v2.725c0,0.27,0.002,0.505,0.007,0.705c0.004,0.201,0.041,0.382,0.109,0.541c0.064,0.16,0.176,0.286,0.337,0.38
		s0.396,0.141,0.706,0.141c0.127,0,0.294-0.027,0.501-0.082c0.207-0.055,0.351-0.104,0.433-0.15h0.205V2061.209z"/>
</g>
<path fill="#207245" d="M740.743,2048.243H742v1.692c2.119,0,4.237,0.006,6.356-0.005c0.358,0.015,0.751-0.012,1.063,0.202
	c0.218,0.315,0.192,0.712,0.207,1.072c-0.01,3.675-0.006,7.348-0.003,11.02c-0.011,0.616,0.057,1.244-0.072,1.852
	c-0.084,0.441-0.615,0.451-0.968,0.468c-2.193,0.005-4.388-0.006-6.583,0v1.903h-1.315c-3.226-0.587-6.458-1.127-9.688-1.692
	v-14.816C734.247,2049.374,737.495,2048.816,740.743,2048.243z"/>
<path fill="#FFFFFF" d="M742,2050.571h6.985v13.337H742v-1.27h1.693v-1.482H742v-0.847h1.693v-1.482H742v-0.847h1.693v-1.481H742
	v-0.846h1.693v-1.482H742v-0.846h1.693v-1.483H742V2050.571z"/>
<path fill="#207245" d="M744.54,2051.842h2.964v1.483h-2.964V2051.842z"/>
<path fill="#FFFFFF" d="M737.267,2053.818c0.479-0.034,0.96-0.063,1.44-0.087c-0.564,1.159-1.134,2.315-1.708,3.47
	c0.583,1.185,1.177,2.362,1.761,3.548c-0.509-0.028-1.02-0.062-1.528-0.099c-0.36-0.883-0.798-1.735-1.057-2.657
	c-0.288,0.858-0.699,1.669-1.028,2.512c-0.464-0.006-0.928-0.024-1.392-0.044c0.544-1.065,1.07-2.139,1.631-3.197
	c-0.476-1.09-0.999-2.158-1.49-3.242c0.465-0.027,0.931-0.055,1.396-0.081c0.316,0.827,0.661,1.646,0.921,2.495
	C736.492,2055.534,736.91,2054.688,737.267,2053.818L737.267,2053.818z"/>
<path fill="#207245" d="M744.54,2054.171h2.964v1.482h-2.964V2054.171z M744.54,2056.499h2.964v1.481h-2.964V2056.499z
	 M744.54,2058.827h2.964v1.482h-2.964V2058.827z M744.54,2061.156h2.964v1.482h-2.964V2061.156z"/>
</svg>
