<?xml version="1.0" encoding="utf-8"?>
<!-- Generator: Adobe Illustrator 16.0.0, SVG Export Plug-In . SVG Version: 6.00 Build 0)  -->
<svg version="1.2" baseProfile="tiny" id="Layer_1" xmlns="http://www.w3.org/2000/svg" xmlns:xlink="http://www.w3.org/1999/xlink"
	 x="0px" y="0px" width="88px" height="24px" viewBox="669.232 2014.188 88 24" xml:space="preserve">
<g>
	<path fill="#FFFFFF" d="M683.161,2030.11h-7.362v-10.179h7.362v1.969h-4.751v1.757h4.409v1.969h-4.409v2.516h4.751V2030.11z"/>
	<path fill="#FFFFFF" d="M693.251,2030.11h-2.872l-1.64-2.299l-1.685,2.299h-2.813l3.028-3.844l-2.98-3.833h2.871l1.613,2.253
		l1.622-2.253h2.822l-2.987,3.781L693.251,2030.11z"/>
	<path fill="#FFFFFF" d="M702.603,2026.166c0,0.634-0.097,1.21-0.29,1.729s-0.447,0.948-0.761,1.285
		c-0.328,0.355-0.699,0.624-1.113,0.807c-0.414,0.183-0.858,0.273-1.331,0.273c-0.437,0-0.808-0.047-1.113-0.141
		c-0.305-0.093-0.617-0.224-0.936-0.393v3.199h-2.468v-10.493h2.468v0.8c0.378-0.301,0.764-0.545,1.157-0.731s0.848-0.28,1.362-0.28
		c0.956,0,1.699,0.351,2.229,1.053S702.603,2024.94,702.603,2026.166z M700.066,2026.218c0-0.746-0.127-1.288-0.382-1.625
		c-0.255-0.337-0.657-0.505-1.208-0.505c-0.232,0-0.471,0.035-0.716,0.105c-0.246,0.071-0.48,0.172-0.703,0.304v3.856
		c0.164,0.064,0.339,0.105,0.525,0.123c0.186,0.019,0.37,0.027,0.552,0.027c0.65,0,1.134-0.189,1.453-0.57
		C699.907,2027.554,700.066,2026.982,700.066,2026.218z"/>
	<path fill="#FFFFFF" d="M712.228,2026.275c0,1.263-0.368,2.257-1.104,2.983c-0.736,0.728-1.77,1.091-3.1,1.091
		s-2.364-0.363-3.1-1.091c-0.736-0.727-1.104-1.721-1.104-2.983c0-1.271,0.37-2.27,1.111-2.994s1.771-1.087,3.093-1.087
		c1.34,0,2.375,0.364,3.107,1.094S712.228,2025.013,712.228,2026.275z M709.199,2028.142c0.16-0.196,0.279-0.432,0.359-0.707
		c0.08-0.276,0.12-0.658,0.12-1.146c0-0.451-0.041-0.829-0.123-1.135s-0.196-0.549-0.342-0.731
		c-0.146-0.187-0.321-0.319-0.526-0.396s-0.426-0.116-0.663-0.116s-0.448,0.032-0.632,0.096s-0.361,0.191-0.53,0.383
		c-0.15,0.178-0.27,0.422-0.359,0.731s-0.133,0.699-0.133,1.169c0,0.419,0.039,0.782,0.116,1.091
		c0.078,0.307,0.191,0.555,0.342,0.741c0.146,0.178,0.32,0.308,0.523,0.39s0.434,0.123,0.694,0.123c0.223,0,0.437-0.037,0.639-0.113
		C708.886,2028.446,709.058,2028.319,709.199,2028.142z"/>
	<path fill="#FFFFFF" d="M719.556,2024.778h-0.218c-0.104-0.036-0.273-0.063-0.505-0.082s-0.425-0.027-0.58-0.027
		c-0.35,0-0.659,0.022-0.928,0.068c-0.268,0.046-0.557,0.123-0.866,0.232v5.141h-2.468v-7.677h2.468v1.128
		c0.541-0.465,1.012-0.773,1.412-0.926c0.4-0.153,0.769-0.229,1.105-0.229c0.086,0,0.184,0.002,0.293,0.007
		c0.109,0.005,0.205,0.012,0.287,0.021V2024.778z"/>
	<path fill="#FFFFFF" d="M725.858,2030.043c-0.264,0.068-0.544,0.121-0.841,0.16c-0.296,0.038-0.659,0.058-1.087,0.058
		c-0.957,0-1.669-0.193-2.136-0.581s-0.701-1.051-0.701-1.989v-3.589h-1.012v-1.668h1.012v-2.194h2.468v2.194h2.297v1.668h-2.297
		v2.725c0,0.27,0.002,0.505,0.007,0.705c0.004,0.201,0.041,0.382,0.109,0.541c0.064,0.16,0.176,0.286,0.337,0.38
		s0.396,0.141,0.706,0.141c0.127,0,0.294-0.027,0.501-0.082c0.207-0.055,0.351-0.104,0.433-0.15h0.205V2030.043z"/>
</g>
<g>
	<polyline fill="#EA4C3A" points="749.183,2034.25 730.335,2034.25 730.335,2016.25 749.183,2016.25 749.183,2034.25 	"/>
	<path fill="none" stroke="#FFFFFF" stroke-width="0.8" stroke-linejoin="round" stroke-miterlimit="10" d="M739.987,2018.998
		c0.284,0.134,0.225,0.307,0.137,1.126c-0.089,0.845-0.388,2.388-0.963,3.904c-0.576,1.516-1.432,3.004-2.177,4.105
		c-0.745,1.103-1.382,1.819-1.868,2.233c-0.488,0.413-0.825,0.523-1.045,0.561c-0.219,0.037-0.318,0-0.377-0.11
		c-0.059-0.111-0.08-0.293-0.029-0.516c0.049-0.22,0.168-0.477,0.505-0.807c0.339-0.331,0.896-0.736,1.671-1.112
		s1.769-0.726,2.584-0.965c0.816-0.238,1.451-0.367,2.008-0.469c0.557-0.102,1.034-0.174,1.501-0.211
		c0.467-0.035,0.925-0.035,1.373,0c0.447,0.037,0.884,0.109,1.262,0.203c0.377,0.091,0.696,0.201,0.975,0.377
		c0.277,0.173,0.516,0.412,0.635,0.68c0.12,0.266,0.12,0.561,0.021,0.771c-0.1,0.211-0.299,0.34-0.527,0.414
		c-0.228,0.072-0.487,0.091-0.795,0c-0.308-0.093-0.667-0.295-1.043-0.562c-0.377-0.267-0.776-0.598-1.292-1.112
		c-0.517-0.514-1.154-1.211-1.69-1.892c-0.536-0.68-0.976-1.341-1.273-1.901c-0.297-0.561-0.457-1.021-0.586-1.479
		c-0.129-0.46-0.229-0.92-0.268-1.333s-0.021-0.781,0.019-1.076c0.039-0.293,0.1-0.515,0.199-0.662
		c0.099-0.145,0.239-0.22,0.338-0.256c0.099-0.037,0.16-0.037,0.219-0.047c0.059-0.009,0.118-0.027,0.209,0
		c0.086,0.026,0.202,0.097,0.316,0.169"/>
</g>
</svg>
